<?xml version="1.0" encoding="utf-8"?>
<!-- Generator: Adobe Illustrator 18.0.0, SVG Export Plug-In . SVG Version: 6.00 Build 0)  -->
<!DOCTYPE svg PUBLIC "-//W3C//DTD SVG 1.1//EN" "http://www.w3.org/Graphics/SVG/1.1/DTD/svg11.dtd">
<svg version="1.1" id="Layer_1" xmlns="http://www.w3.org/2000/svg" xmlns:xlink="http://www.w3.org/1999/xlink" x="0px" y="0px"
	 viewBox="0 0 345.5 120" enable-background="new 0 0 345.5 120" xml:space="preserve">
<g>
	<path fill="#3D3D3D" d="M65.6,63.7c5.5-0.4,6.5-1.4,8-5c0.2-0.4,2.8-7.3,6.7-20.4l8.5-29.2c0.3-1.2,0.5-2.2,0.5-2.9
		c0-2.6-2.2-2.5-8.6-2.9V1.5h20.8c15.3,0,23.1,5.5,23.1,16.8c0,12.6-9.5,20.7-26.5,20.7c-2.9,0-6.4-0.3-10.6-0.9l-3.7,11.5
		C81.7,56,81,60,81,60.7c0,2.7,2.3,3,7.7,3v2H65.6V63.7z M96.9,36.8c12.8,0,19.9-7.2,19.9-19c0-8.6-5.5-14.5-14.2-14.5
		c-4.2,0-5.1,1.2-6.2,5l-8,27.3C91.3,36.4,94.1,36.8,96.9,36.8z"/>
	<path fill="#3D3D3D" d="M126.4,34.7c4.5-5.7,8.2-8.5,13.2-8.5c3.9,0,6.1,2,6.1,5.7c0,7.6-6,10.2-18.6,13.3
		c-1.4,0.4-2.4,0.7-2.9,1.8c-1.6,3.6-2.5,7.6-2.5,11c0,3,1.4,4.7,4.2,4.7c3.6,0,6.3-2.2,9.9-6.1c3-3.2,4.4-5.8,5.7-5.8
		c0.3,0,0.5,0.3,0.5,0.8c0,0.4-1.7,3.6-5.6,7.6c-4.5,4.7-8.2,7.1-12.5,7.1c-5.2,0-7.7-3-7.7-9.2C116.1,52,119.3,43.8,126.4,34.7z
		 M130,34c-2.4,4-3.4,7.2-3.4,8.2c0,0.2,0.2,0.4,0.7,0.4c5.7,0,13.2-4.8,13.2-10c0-2.4-1.1-3.7-3.4-3.7C134.6,29,132,30.7,130,34z"
		/>
	<path fill="#3D3D3D" d="M157.9,44.1c2.5-6.3,3.1-10.7,3.1-11.3c0-1-0.1-1.4-1-1.4c-1.1,0-3,1.4-5.2,4.2c-3.4,4.2-4.7,6.4-5.7,6.4
		c-0.3,0-0.5-0.2-0.5-0.7c0-0.6,1.4-3.4,4.8-7.6c4.3-5.3,7.9-7.5,10.6-7.5c1.5,0,2.1,0.2,2.1,1.8c0,1.1-0.5,3.4-1.6,6.7l-2.4,7.6
		c-0.2,0.8-0.3,1.3-0.3,1.4c0,0.3,0.4,0.7,0.7,0.7c0.9,0,2.9-3.5,7.9-9.8c4.3-5.4,7.8-8.5,11.6-8.5c2.9,0,4.6,1.8,4.6,4.7
		c0,2.4-1.3,4.1-3.4,4.1c-4.3,0-3.9-3.5-5.8-3.5c-2.5,0-10.7,8.7-18.5,25.4l-4.1,8.6c-0.4,0.9-0.8,1.4-1.7,1.4h-2.2
		c-0.9,0-1.3-0.4-1.3-1.2c0-0.3,0-0.7,0.2-1.1L157.9,44.1z"/>
	<path fill="#3D3D3D" d="M189.1,29.6l0.8-2.9h8.8C203.2,9,211.1,0.2,220.7,0.2c5.4,0,8.4,2.1,8.4,5.3c0,1.9-1.4,3.4-3.4,3.4
		c-1.8,0-2.5-0.8-3.6-2.2c-1.3-1.8-2.2-3.3-5.1-3.3c-5.6,0-8.3,7.6-12.6,23.4h9.1l-0.8,2.9h-9.1L198.4,50
		c-6.7,25.7-14.4,38.4-24.1,38.4c-4.7,0-7.5-2.2-7.5-5.5c0-1.9,1.1-3,2.8-3s2.3,0.9,3.4,2.6c1.1,1.9,2.1,2.8,4.3,2.8
		c5.1,0,7.8-7.4,11.9-22.6l8.7-33.1H189.1z"/>
	<path fill="#3D3D3D" d="M220,34.7c4.5-5.7,8.2-8.5,13.2-8.5c3.9,0,6.1,2,6.1,5.7c0,7.6-6,10.2-18.6,13.3c-1.4,0.4-2.4,0.7-2.9,1.8
		c-1.6,3.6-2.5,7.6-2.5,11c0,3,1.4,4.7,4.2,4.7c3.6,0,6.3-2.2,9.9-6.1c3-3.2,4.4-5.8,5.7-5.8c0.3,0,0.5,0.3,0.5,0.8
		c0,0.4-1.7,3.6-5.6,7.6c-4.5,4.7-8.2,7.1-12.5,7.1c-5.2,0-7.7-3-7.7-9.2C209.6,52,212.9,43.8,220,34.7z M223.6,34
		c-2.4,4-3.4,7.2-3.4,8.2c0,0.2,0.2,0.4,0.7,0.4c5.7,0,13.2-4.8,13.2-10c0-2.4-1.1-3.7-3.4-3.7C228.1,29,225.6,30.7,223.6,34z"/>
	<path fill="#3D3D3D" d="M249.8,36.9c5.2-7.2,9.6-10.8,14.6-10.8c3.6,0,5.7,1.8,5.7,5c0,2-1,3.1-3,3.1c-1.9,0-2.5-0.9-3.1-3
		c-0.5-1.7-0.7-2.6-2-2.6c-2.3,0-5,2.7-8,8.1c-4.1,7.2-6,15.3-6,20.8c0,4,1.3,5.8,4,5.8c2.5,0,5.8-1.5,8.5-4.4
		c3.5-3.6,4.3-5.9,5.4-5.9c0.4,0,0.6,0.2,0.6,0.8s-0.9,2.6-3.1,5.2c-4.3,4.9-8.4,7.3-13.7,7.3c-5.2,0-7.6-2.9-7.6-9.2
		C241.8,51.8,244.4,44.4,249.8,36.9z"/>
	<path fill="#3D3D3D" d="M277.7,29.3l1.1-2.8h6.7l3.7-9.5h5.1l-3.2,9.5h7.3l-1,2.8h-7.5L280,55.2c-1,2.6-1.5,4.6-1.5,5.5
		c0,0.4,0.4,0.6,1.1,0.6c0.8,0,3.4-1.2,6.6-4.1c3.7-3.1,5-5.3,6.1-5.3c0.5,0,0.6,0.2,0.6,0.7c0,1-1.6,2.9-5,6c-5.9,5.4-11,8-14.5,8
		c-1.6,0-2.2-0.6-2.2-1.9c0-0.3,0.2-1,0.6-2.1l12.6-33.3H277.7z"/>
	<path fill="#3D3D3D" d="M223.5,119.9c-13.2,0-21.4-9.6-21.4-21.7c0-11.6,8.5-21.8,21.1-21.8c7.1,0,11.5,2,15.7,5.6l-3.1,3.6
		c-3.2-2.8-6.8-4.8-12.8-4.8c-9.3,0-16,7.9-16,17.3c0,10.1,6.4,17.5,16.6,17.5c4.8,0,9.2-1.9,12.1-4.2V101H223v-4.3h17.3v16.7
		C236.5,117,230.6,119.9,223.5,119.9z"/>
	<rect x="253.9" y="77.2" fill="#3D3D3D" width="4.7" height="42"/>
	<polygon fill="#3D3D3D" points="303.5,81.6 278,81.6 278,96.6 300.8,96.6 300.8,100.9 278,100.9 278,119.2 273.3,119.2 273.3,77.2 
		303.5,77.2 	"/>
	<polygon fill="#3D3D3D" points="331,119.2 326.2,119.2 326.2,81.6 312.1,81.6 312.1,77.2 345.1,77.2 345.1,81.6 331,81.6 	"/>
	<polygon fill="#3D3D3D" points="9.2,27.4 6.1,27.4 6.1,5 0.1,5 0.1,2.1 15.2,2.1 15.2,5 9.2,5 	"/>
	<polygon fill="#3D3D3D" points="38.7,12.3 38.7,2.1 41.8,2.1 41.8,27.4 38.7,27.4 38.7,15.2 26.6,15.2 26.6,27.4 23.5,27.4 
		23.5,2.1 26.6,2.1 26.6,12.3 	"/>
	<polygon fill="#3D3D3D" points="52.4,2.1 66,2.1 66,5 55.5,5 55.5,12.1 65.7,12.1 65.7,14.9 55.5,14.9 55.5,24.5 66,24.5 66,27.4 
		52.4,27.4 	"/>
</g>
</svg>
